<svg width="20" height="20" viewBox="0 0 20 20" fill="none" xmlns="http://www.w3.org/2000/svg">
<g filter="url(#filter0_d_25_3131)">
<path d="M10.6978 2.53192V4.23614C10.6978 4.34643 10.7872 4.43584 10.8975 4.43584H12.7819L10.6978 2.53192Z" fill="white"/>
<path d="M5.37123 7.13399H9.10803C9.16523 7.04357 9.22613 6.955 9.29441 6.87012C9.8111 6.21871 10.588 5.84595 11.4239 5.84595C11.9074 5.84595 12.3706 5.96959 12.7821 6.20947V4.8052H10.898C10.5843 4.8052 10.3296 4.55052 10.3296 4.23682V2.53174H4.94311C4.6737 2.53174 4.4541 2.74948 4.4541 3.01891V13.3306C4.4541 13.5982 4.6737 13.8178 4.94311 13.8178H12.2949C12.5643 13.8178 12.7821 13.5982 12.7821 13.3306V10.9169C12.3724 11.1568 11.9074 11.2841 11.4239 11.2841C10.9515 11.2841 10.4846 11.1605 10.0768 10.9298H5.37123C5.26973 10.9298 5.18669 10.8468 5.18669 10.7453C5.18669 10.642 5.26973 10.5608 5.37123 10.5608H9.57305C9.18 10.1973 8.90505 9.73223 8.78141 9.21553H5.37123C5.26973 9.21553 5.18669 9.1325 5.18669 9.031C5.18669 8.92949 5.26973 8.84646 5.37123 8.84646H8.71682C8.66884 8.38143 8.73712 7.92195 8.91796 7.50306H5.37123C5.26973 7.50306 5.18669 7.42002 5.18669 7.31852C5.18669 7.21519 5.26974 7.13399 5.37123 7.13399ZM5.37123 12.2733H11.7395C11.841 12.2733 11.924 12.3563 11.924 12.4578C11.924 12.5593 11.841 12.6423 11.7395 12.6423H5.37123C5.26973 12.6423 5.18669 12.5593 5.18669 12.4578C5.18669 12.3563 5.26974 12.2733 5.37123 12.2733ZM5.37123 3.70721H8.6061C8.70759 3.70721 8.79063 3.78842 8.79063 3.89175C8.79063 3.99323 8.70759 4.07628 8.6061 4.07628H5.37123C5.26973 4.07628 5.18669 3.99323 5.18669 3.89175C5.18669 3.78842 5.26974 3.70721 5.37123 3.70721ZM5.37123 5.41969H11.7395C11.841 5.41969 11.924 5.50272 11.924 5.60422C11.924 5.7057 11.841 5.78875 11.7395 5.78875H5.37123C5.26973 5.78875 5.18669 5.7057 5.18669 5.60422C5.18669 5.50272 5.26974 5.41969 5.37123 5.41969Z" fill="white"/>
<path d="M9.77806 7.2563L9.77813 7.25621C10.4825 6.36936 11.7983 6.18406 12.7326 6.92172C13.5406 7.56369 13.8542 8.7871 13.0783 9.8594C13.0718 9.86669 13.0652 9.87482 13.0589 9.88375C12.2882 10.8212 10.9796 10.8983 10.113 10.2087L10.1129 10.2086C9.21397 9.4943 9.04795 8.17467 9.77806 7.2563ZM11.1657 7.40621L11.1659 7.40618L10.2353 8.49546C10.2625 7.97649 10.6357 7.51892 11.1657 7.40621ZM9.36742 8.44985L9.36742 8.44993L11.0369 6.80054L10.9849 6.55603C10.9848 6.55604 10.9848 6.55605 10.9847 6.55606C10.059 6.75328 9.4146 7.55188 9.36742 8.44985ZM9.80152 8.90723C10.0312 8.90723 10.2231 8.72746 10.2353 8.49552L9.7917 8.65705L9.77787 8.90667C9.77806 8.90668 9.77825 8.90669 9.77844 8.9067C9.78879 8.90725 9.79819 8.90723 9.801 8.90723L9.80152 8.90723Z" stroke="white" stroke-width="0.5"/>
<path d="M15.7569 11.9411C15.5373 12.2161 15.135 12.2622 14.8582 12.0426L13.4594 10.9281L13.596 10.7565L13.3063 10.5258C13.5496 10.2926 13.6485 10.1549 13.8101 9.85406L14.1182 10.0995L14.2548 9.92791C14.2737 9.94293 15.6743 11.0576 15.6554 11.0425C15.9303 11.2621 15.9765 11.6643 15.7569 11.9411Z" fill="white"/>
</g>
<defs>
<filter id="filter0_d_25_3131" x="0" y="0" width="20.3496" height="20.3495" filterUnits="userSpaceOnUse" color-interpolation-filters="sRGB">
<feFlood flood-opacity="0" result="BackgroundImageFix"/>
<feColorMatrix in="SourceAlpha" type="matrix" values="0 0 0 0 0 0 0 0 0 0 0 0 0 0 0 0 0 0 127 0" result="hardAlpha"/>
<feOffset dy="2"/>
<feGaussianBlur stdDeviation="2"/>
<feComposite in2="hardAlpha" operator="out"/>
<feColorMatrix type="matrix" values="0 0 0 0 0 0 0 0 0 0 0 0 0 0 0 0 0 0 0.25 0"/>
<feBlend mode="normal" in2="BackgroundImageFix" result="effect1_dropShadow_25_3131"/>
<feBlend mode="normal" in="SourceGraphic" in2="effect1_dropShadow_25_3131" result="shape"/>
</filter>
</defs>
</svg>
