<svg width="20" height="20" viewBox="0 0 20 20" fill="none" xmlns="http://www.w3.org/2000/svg">
<g clip-path="url(#clip0_25_3103)" filter="url(#filter0_d_25_3103)">
<path d="M12.7604 3.95666C12.7604 3.6865 12.655 3.43217 12.4639 3.24109L11.5098 2.287C11.3214 2.09855 11.0539 1.99048 10.7877 1.99048H10.7297V4.01464H12.7605L12.7604 3.95666Z" fill="white"/>
<path d="M10.161 8.95217C10.2256 8.75614 10.3383 8.57363 10.4852 8.4257L12.7694 6.15071V4.68936H10.3989C10.2124 4.68936 10.0725 4.53847 10.0725 4.352V1.99048H5.01208C4.454 1.99048 4 2.44447 4 3.00256V12.4936C4 13.0517 4.454 13.5057 5.01208 13.5057H11.7483C12.3064 13.5057 12.7694 13.0517 12.7694 12.4936V9.97576L12.3987 10.3375C12.2484 10.4864 12.0725 10.5948 11.8742 10.661L10.8015 11.0191L10.6381 11.0281C10.3679 11.0281 10.1123 10.8966 9.95348 10.6765C9.796 10.4574 9.75317 10.1735 9.83882 9.91681L10.161 8.95217ZM5.6868 8.06295H9.04944C9.23591 8.06295 9.3868 8.21384 9.3868 8.40031C9.3868 8.58678 9.23591 8.73767 9.04944 8.73767H5.6868C5.50033 8.73767 5.34944 8.58678 5.34944 8.40031C5.34944 8.21384 5.50033 8.06295 5.6868 8.06295ZM5.34944 7.05087C5.34944 6.8644 5.50033 6.71351 5.6868 6.71351H9.04944C9.23591 6.71351 9.3868 6.8644 9.3868 7.05087C9.3868 7.23734 9.23591 7.38823 9.04944 7.38823H5.6868C5.50033 7.38823 5.34944 7.23734 5.34944 7.05087ZM5.34944 9.74975C5.34944 9.56328 5.50033 9.41239 5.6868 9.41239H9.04944C9.23591 9.41239 9.3868 9.56328 9.3868 9.74975C9.3868 9.93622 9.23591 10.0871 9.04944 10.0871H5.6868C5.50033 10.0871 5.34944 9.93622 5.34944 9.74975ZM10.3989 11.4365C10.5854 11.4365 10.7362 11.5874 10.7362 11.7739C10.7362 11.9604 10.5854 12.1113 10.3989 12.1113H8.37472C8.18825 12.1113 8.03736 11.9604 8.03736 11.7739C8.03736 11.5874 8.18825 11.4365 8.37472 11.4365H10.3989ZM5.6868 6.03879C5.50033 6.03879 5.34944 5.8879 5.34944 5.70143C5.34944 5.51497 5.50033 5.36408 5.6868 5.36408H10.3989C10.5854 5.36408 10.7362 5.51497 10.7362 5.70143C10.7362 5.8879 10.5854 6.03879 10.3989 6.03879H5.6868Z" fill="white"/>
<path d="M10.7721 9.25061L10.4786 10.1311C10.4346 10.263 10.5601 10.3885 10.692 10.3445L11.572 10.0506L10.7721 9.25061Z" fill="white"/>
<path d="M13.3922 6.47302L11.1704 8.69485L12.1286 9.65306C12.6308 9.1508 13.6079 8.17356 14.3503 7.43112L13.3922 6.47302Z" fill="white"/>
<path d="M15.3169 5.50545C15.1983 5.38618 15.0237 5.31799 14.8385 5.31799C14.6534 5.31799 14.4788 5.38618 14.3595 5.50579L13.8693 5.99602L14.8273 6.95407C15.0957 6.68567 15.2812 6.50017 15.3176 6.4638C15.5811 6.19987 15.5811 5.76999 15.3169 5.50545Z" fill="white"/>
<path d="M15.3175 6.46399L15.3176 6.46394C15.3185 6.46299 15.3189 6.46257 15.3197 6.46179C15.3189 6.46259 15.3185 6.46302 15.3175 6.46399Z" fill="white"/>
<path d="M15.3197 6.46231C15.3209 6.46111 15.3223 6.45971 15.323 6.45898C15.3223 6.45973 15.3209 6.46111 15.3197 6.46231Z" fill="white"/>
<path d="M15.3225 6.45899C15.3249 6.45657 15.325 6.45652 15.3225 6.45899V6.45899Z" fill="white"/>
</g>
<defs>
<filter id="filter0_d_25_3103" x="0.195426" y="0.0881916" width="19.1244" height="19.1243" filterUnits="userSpaceOnUse" color-interpolation-filters="sRGB">
<feFlood flood-opacity="0" result="BackgroundImageFix"/>
<feColorMatrix in="SourceAlpha" type="matrix" values="0 0 0 0 0 0 0 0 0 0 0 0 0 0 0 0 0 0 127 0" result="hardAlpha"/>
<feOffset dy="1.90229"/>
<feGaussianBlur stdDeviation="1.90229"/>
<feComposite in2="hardAlpha" operator="out"/>
<feColorMatrix type="matrix" values="0 0 0 0 0 0 0 0 0 0 0 0 0 0 0 0 0 0 0.25 0"/>
<feBlend mode="normal" in2="BackgroundImageFix" result="effect1_dropShadow_25_3103"/>
<feBlend mode="normal" in="SourceGraphic" in2="effect1_dropShadow_25_3103" result="shape"/>
</filter>
<clipPath id="clip0_25_3103">
<rect width="11.5152" height="11.5152" fill="white" transform="translate(4 1.99048)"/>
</clipPath>
</defs>
</svg>
