<?xml version="1.0" encoding="UTF-8"?>
<svg version="1.1" xmlns="http://www.w3.org/2000/svg" width="368" height="368">
<path d="M0 0 C0.639375 0.495 1.27875 0.99 1.9375 1.5 C4.60511764 1.75124826 4.60511764 1.75124826 6.9375 1.5 C6.9375 2.82 6.9375 4.14 6.9375 5.5 C6.2775 6.16 5.6175 6.82 4.9375 7.5 C5.2560177 9.60820797 5.2560177 9.60820797 5.9375 11.5 C7.5875 11.5 9.2375 11.5 10.9375 11.5 C10.9375 12.82 10.9375 14.14 10.9375 15.5 C10.2775 15.83 9.6175 16.16 8.9375 16.5 C8.6590625 18.3871875 8.6590625 18.3871875 8.375 20.3125 C7.74667099 23.16296818 7.37863534 24.1931986 4.94921875 25.8828125 C-1.94054357 28.92738832 -8.52187215 30.37312533 -16.0625 29.5 C-18.26037583 28.62770613 -20.17271522 27.62637314 -22.17578125 26.375 C-24.5632184 25.26778277 -26.46240888 25.3567936 -29.0625 25.5 C-32.41825855 39.46060717 -34.09880568 53.18638222 -35.0625 67.5 C-35.17551779 69.09767491 -35.28878049 70.69533252 -35.40234375 72.29296875 C-35.63938735 75.69433169 -35.85818208 79.09649354 -36.0625 82.5 C-35.46824219 81.93152344 -34.87398437 81.36304688 -34.26171875 80.77734375 C-20.99193258 68.41559893 -7.21482181 59.98073663 11.24609375 60.1640625 C16.08127842 60.60408989 19.81168284 61.9954389 23.9375 64.5 C25.55487483 59.87892907 26.78998597 55.2539867 27.9375 50.5 C26.390625 50.2215625 26.390625 50.2215625 24.8125 49.9375 C20.75364628 48.77782751 18.64436455 46.55753756 15.90625 43.44921875 C14.9375 41.5 14.9375 41.5 15.01171875 39.01171875 C16.17360062 35.8594401 17.6262507 34.69479895 20.25 32.625 C24.35872054 29.12570691 26.9533544 26.55055245 28.9375 21.5 C28.80385527 19.44336634 28.80385527 19.44336634 28.375 17.375 C27.9375 13.5 27.9375 13.5 29.8125 10.4375 C33.63902387 8.0650552 35.30729353 8.3339858 39.58984375 9.11328125 C41.91702456 9.49662717 43.96355597 9.49179832 46.3125 9.375 C49.9375 9.5 49.9375 9.5 51.9375 10.75 C52.9375 12.5 52.9375 12.5 52.9375 16.5 C54.05125 16.37625 54.05125 16.37625 55.1875 16.25 C57.9375 16.5 57.9375 16.5 60.25 18 C62.16291109 20.83394236 62.61935681 22.98748916 62.47265625 26.40625 C61.63779534 29.67256713 59.69746017 31.61833751 57.34765625 33.95703125 C55.69210977 35.55854225 55.69210977 35.55854225 54.9375 38.5 C56.2575 39.16 57.5775 39.82 58.9375 40.5 C59.25694345 44.01387796 59.37633512 45.87550387 57.3125 48.8125 C54.9375 50.5 54.9375 50.5 48.9375 51.5 C50.9175 58.925 50.9175 58.925 52.9375 66.5 C54.175 65.695625 55.4125 64.89125 56.6875 64.0625 C63.11909378 59.88196404 69.58937115 59.58749761 77.02734375 61.1484375 C92.07096158 65.33417659 104.31478406 75.30308319 114.9375 86.5 C115.28042204 67.33446825 114.51050645 48.35378876 110.9375 29.5 C106.11442264 28.37600544 106.11442264 28.37600544 101.6875 29.875 C96.67722572 32.83561662 90.88228521 33.01048569 85.2109375 32.02734375 C80.3195076 30.6751811 75.51879617 29.17554081 71.9375 25.5 C70.29422075 18.9628672 72.30624353 13.39945432 75.52734375 7.7109375 C77.4675802 4.66890472 78.89084103 2.50802523 81.9375 0.5 C88.20410189 -0.38124089 92.99149938 2.21607896 97.92578125 5.82421875 C102.55727317 9.68229648 105.50457592 13.50777204 106.9375 19.5 C106.9375 20.82 106.9375 22.14 106.9375 23.5 C107.68 23.62375 108.4225 23.7475 109.1875 23.875 C111.73891485 24.45486701 113.6642573 25.23708739 115.9375 26.5 C116.2675 25.18 116.5975 23.86 116.9375 22.5 C123.45420168 22.5 126.92002906 25.38623563 131.8984375 29.39453125 C133.9375 31.5 133.9375 31.5 134.31835938 33.49291992 C134.75535856 35.63158397 134.75535856 35.63158397 136.64892578 36.71679688 C137.75469971 37.21276367 137.75469971 37.21276367 138.8828125 37.71875 C139.70539551 38.09185303 140.52797852 38.46495605 141.37548828 38.84936523 C142.26220215 39.22907471 143.14891602 39.60878418 144.0625 40 C144.96597168 40.39582275 145.86944336 40.79164551 146.80029297 41.19946289 C154.37048804 44.43188399 161.87842355 46.77373629 169.9375 48.5 C170.97519531 48.72300781 172.01289063 48.94601563 173.08203125 49.17578125 C175.36342151 49.64482232 177.64489281 50.09002789 179.9375 50.5 C179.6075 51.82 179.2775 53.14 178.9375 54.5 C163.07927793 53.9093772 149.29131287 48.7545378 134.9375 42.5 C135.32421875 43.51835937 135.7109375 44.53671875 136.109375 45.5859375 C143.68712059 65.97687335 151.23788204 91.73176166 142.3125 112.875 C139.09779528 118.65424443 133.1875392 122.61892024 126.9375 124.5 C123.890701 124.7557572 120.86790226 124.73409121 117.8125 124.6875 C117.00167969 124.68685547 116.19085938 124.68621094 115.35546875 124.68554688 C111.88893959 124.65976277 109.25887284 124.60712428 105.9375 123.5 C105.855 124.2425 105.7725 124.985 105.6875 125.75 C104.76232641 129.14230315 103.81303044 130.47935699 100.9375 132.5 C95.23062001 132.63271814 90.69828965 129.31319389 85.9375 126.5 C86.2675 129.8 86.5975 133.1 86.9375 136.5 C87.84113281 136.69335938 88.74476563 136.88671875 89.67578125 137.0859375 C90.85527344 137.34632813 92.03476563 137.60671875 93.25 137.875 C94.42175781 138.13023437 95.59351563 138.38546875 96.80078125 138.6484375 C99.9375 139.5 99.9375 139.5 102.9375 141.5 C103.125 144.125 103.125 144.125 102.9375 146.5 C96.73698395 149.6401071 90.49860308 151.11867654 83.6875 152.1875 C82.93879639 152.30649658 82.19009277 152.42549316 81.41870117 152.5480957 C67.47651661 154.59247777 53.49595888 154.70295263 39.4375 154.6875 C38.50885132 154.68722809 37.58020264 154.68695618 36.62341309 154.68667603 C-8.81157462 154.62546269 -8.81157462 154.62546269 -25.0625 146.5 C-25.0625 144.85 -25.0625 143.2 -25.0625 141.5 C-18.6474443 138.62059087 -13.09202752 136.9535179 -6.0625 136.5 C-6.0625 133.53 -6.0625 130.56 -6.0625 127.5 C-7.073125 128.345625 -8.08375 129.19125 -9.125 130.0625 C-11.97856682 132.0720541 -12.93416639 132.49312499 -16.5625 132.6875 C-22.17644398 130.78276901 -25.80154746 127.39142881 -29.0625 122.5 C-31.85333829 122.24863967 -31.85333829 122.24863967 -35.0625 122.5 C-43.80186421 122.69313512 -51.1561641 121.12143619 -58.0625 115.5 C-65.9643328 107.2306401 -67.40676074 98.32513555 -67.26953125 87.296875 C-66.35932596 70.6040535 -61.97982743 53.27257435 -54.0625 38.5 C-54.60551758 38.69634033 -55.14853516 38.89268066 -55.70800781 39.0949707 C-69.38479407 44.01901891 -82.43144025 48.66476234 -97.0625 49.5 C-97.625 47.5625 -97.625 47.5625 -98.0625 45.5 C-96.3401354 43.7776354 -94.00601105 43.95782761 -91.69189453 43.60009766 C-79.13074869 41.64940639 -67.60670316 37.99008375 -56.13671875 32.41796875 C-54.0625 31.5 -54.0625 31.5 -52.0625 31.5 C-52.0625 29.85 -52.0625 28.2 -52.0625 26.5 C-51.423125 26.396875 -50.78375 26.29375 -50.125 26.1875 C-49.444375 25.960625 -48.76375 25.73375 -48.0625 25.5 C-47.5675 24.015 -47.5675 24.015 -47.0625 22.5 C-42.78550487 19.00064035 -39.34154928 19.23157377 -34.0625 19.5 C-34.0625 20.49 -34.0625 21.48 -34.0625 22.5 C-31.7525 21.84 -29.4425 21.18 -27.0625 20.5 C-27.07152344 19.943125 -27.08054687 19.38625 -27.08984375 18.8125 C-26.8553978 12.77806519 -25.22516092 9.54562276 -21.03515625 5.2265625 C-15.75779191 0.60756243 -6.63764837 -4.82738063 0 0 Z " fill="#F74F46" transform="translate(145.0625,128.5)"/>
<path d="M0 0 C6.90700696 2.22010938 12.34790834 6.87039509 16.40625 12.7734375 C17.96292291 16.47980156 18.40625 18.7165321 18.40625 22.7734375 C19.14875 22.8971875 19.89125 23.0209375 20.65625 23.1484375 C23.20766485 23.72830451 25.1330073 24.51052489 27.40625 25.7734375 C27.73625 24.4534375 28.06625 23.1334375 28.40625 21.7734375 C34.92295168 21.7734375 38.38877906 24.65967313 43.3671875 28.66796875 C45.40625 30.7734375 45.40625 30.7734375 45.78710938 32.76635742 C46.22410856 34.90502147 46.22410856 34.90502147 48.11767578 35.99023438 C49.22344971 36.48620117 49.22344971 36.48620117 50.3515625 36.9921875 C51.17414551 37.36529053 51.99672852 37.73839355 52.84423828 38.12280273 C53.73095215 38.50251221 54.61766602 38.88222168 55.53125 39.2734375 C56.43472168 39.66926025 57.33819336 40.06508301 58.26904297 40.47290039 C65.83923804 43.70532149 73.34717355 46.04717379 81.40625 47.7734375 C82.44394531 47.99644531 83.48164063 48.21945313 84.55078125 48.44921875 C86.83217151 48.91825982 89.11364281 49.36346539 91.40625 49.7734375 C91.07625 51.0934375 90.74625 52.4134375 90.40625 53.7734375 C74.54802793 53.1828147 60.76006287 48.0279753 46.40625 41.7734375 C46.79296875 42.79179687 47.1796875 43.81015625 47.578125 44.859375 C55.15587059 65.25031085 62.70663204 91.00519916 53.78125 112.1484375 C50.55832871 117.9424533 44.65976452 121.86336821 38.40625 123.7734375 C35.44333448 124.0787187 32.50788041 124.09815684 29.53125 124.0859375 C28.75394531 124.10205078 27.97664063 124.11816406 27.17578125 124.13476562 C21.84259872 124.13924729 18.16863106 123.1800274 13.40625 120.7734375 C12.76029927 106.95726907 14.52582211 95.05991587 21.40625 82.7734375 C25.28125 84.6484375 25.28125 84.6484375 26.40625 85.7734375 C26.74917204 66.60790575 25.97925645 47.62722626 22.40625 28.7734375 C17.58317264 27.64944294 17.58317264 27.64944294 13.15625 29.1484375 C8.14597572 32.10905412 2.35103521 32.28392319 -3.3203125 31.30078125 C-8.2117424 29.9486186 -13.01245383 28.44897831 -16.59375 24.7734375 C-18.23702925 18.2363047 -16.22500647 12.67289182 -13.00390625 6.984375 C-9.30236288 1.18084717 -6.90721168 -1.22027406 0 0 Z " fill="#F3ACA1" transform="translate(233.59375,129.2265625)"/>
<path d="M0 0 C0.639375 0.495 1.27875 0.99 1.9375 1.5 C4.60511764 1.75124826 4.60511764 1.75124826 6.9375 1.5 C6.9375 2.82 6.9375 4.14 6.9375 5.5 C6.2775 6.16 5.6175 6.82 4.9375 7.5 C5.2560177 9.60820797 5.2560177 9.60820797 5.9375 11.5 C7.5875 11.5 9.2375 11.5 10.9375 11.5 C10.9375 12.82 10.9375 14.14 10.9375 15.5 C10.2775 15.83 9.6175 16.16 8.9375 16.5 C8.6590625 18.3871875 8.6590625 18.3871875 8.375 20.3125 C7.74667099 23.16296818 7.37863534 24.1931986 4.94921875 25.8828125 C-1.94054357 28.92738832 -8.52187215 30.37312533 -16.0625 29.5 C-18.26037583 28.62770613 -20.17271522 27.62637314 -22.17578125 26.375 C-24.5632184 25.26778277 -26.46240888 25.3567936 -29.0625 25.5 C-32.4177315 39.45841454 -34.10226311 53.18764228 -35.0625 67.5 C-35.14129395 68.66208984 -35.14129395 68.66208984 -35.22167969 69.84765625 C-35.26969727 70.55792969 -35.31771484 71.26820313 -35.3671875 72 C-35.45226562 73.258125 -35.53734375 74.51625 -35.625 75.8125 C-35.71974609 77.41544922 -35.71974609 77.41544922 -35.81640625 79.05078125 C-36.0625 81.5 -36.0625 81.5 -37.0625 83.5 C-36.0725 83.83 -35.0825 84.16 -34.0625 84.5 C-32.74873527 87.1215578 -31.6256636 89.65340516 -30.5625 92.375 C-30.10121704 93.53213501 -30.10121704 93.53213501 -29.63061523 94.71264648 C-26.27122879 103.28978432 -23.53599962 111.19849333 -24.0625 120.5 C-33.50731097 123.85815501 -42.81444295 123.2936572 -52.0625 119.5 C-59.24348857 115.57077984 -63.32738485 110.15832241 -66.0625 102.5 C-70.17670029 81.58614854 -63.99676719 57.03588879 -54.0625 38.5 C-54.60551758 38.69634033 -55.14853516 38.89268066 -55.70800781 39.0949707 C-69.38479407 44.01901891 -82.43144025 48.66476234 -97.0625 49.5 C-97.625 47.5625 -97.625 47.5625 -98.0625 45.5 C-96.3401354 43.7776354 -94.00601105 43.95782761 -91.69189453 43.60009766 C-79.13074869 41.64940639 -67.60670316 37.99008375 -56.13671875 32.41796875 C-54.0625 31.5 -54.0625 31.5 -52.0625 31.5 C-52.0625 29.85 -52.0625 28.2 -52.0625 26.5 C-51.423125 26.396875 -50.78375 26.29375 -50.125 26.1875 C-49.444375 25.960625 -48.76375 25.73375 -48.0625 25.5 C-47.5675 24.015 -47.5675 24.015 -47.0625 22.5 C-42.78550487 19.00064035 -39.34154928 19.23157377 -34.0625 19.5 C-34.0625 20.49 -34.0625 21.48 -34.0625 22.5 C-31.7525 21.84 -29.4425 21.18 -27.0625 20.5 C-27.07152344 19.943125 -27.08054687 19.38625 -27.08984375 18.8125 C-26.8553978 12.77806519 -25.22516092 9.54562276 -21.03515625 5.2265625 C-15.75779191 0.60756243 -6.63764837 -4.82738063 0 0 Z " fill="#F3ACA1" transform="translate(145.0625,128.5)"/>
<path d="M0 0 C2.32718081 0.38334592 4.37371222 0.37851707 6.72265625 0.26171875 C10.34765625 0.38671875 10.34765625 0.38671875 12.34765625 1.63671875 C13.34765625 3.38671875 13.34765625 3.38671875 13.34765625 7.38671875 C14.09015625 7.30421875 14.83265625 7.22171875 15.59765625 7.13671875 C18.34765625 7.38671875 18.34765625 7.38671875 20.66015625 8.88671875 C22.57306734 11.72066111 23.02951306 13.87420791 22.8828125 17.29296875 C22.04795159 20.55928588 20.10761642 22.50505626 17.7578125 24.84375 C16.10226602 26.445261 16.10226602 26.445261 15.34765625 29.38671875 C16.66765625 30.04671875 17.98765625 30.70671875 19.34765625 31.38671875 C19.6670997 34.90059671 19.78649137 36.76222262 17.72265625 39.69921875 C14.90664744 41.70006711 12.7293409 41.91884183 9.34765625 42.38671875 C9.63640625 43.41410156 9.92515625 44.44148438 10.22265625 45.5 C15.36668884 64.42326363 15.36668884 64.42326363 11.84765625 73.07421875 C11.35265625 73.83734375 10.85765625 74.60046875 10.34765625 75.38671875 C10.01765625 74.72671875 9.68765625 74.06671875 9.34765625 73.38671875 C9.63640625 72.70609375 9.92515625 72.02546875 10.22265625 71.32421875 C11.72524191 67.40080063 12.00291574 63.55082124 12.34765625 59.38671875 C11.07921875 59.88171875 11.07921875 59.88171875 9.78515625 60.38671875 C6.13776409 61.44777829 3.12490961 61.53780888 -0.65234375 61.38671875 C0.00765625 64.68671875 0.66765625 67.98671875 1.34765625 71.38671875 C-2.65234375 69.38671875 -2.65234375 69.38671875 -3.52734375 67.51171875 C-3.68032293 64.91107265 -2.87092906 63.6444078 -1.65234375 61.38671875 C-2.255625 61.33773437 -2.85890625 61.28875 -3.48046875 61.23828125 C-4.2796875 61.16351563 -5.07890625 61.08875 -5.90234375 61.01171875 C-6.69125 60.94210938 -7.48015625 60.8725 -8.29296875 60.80078125 C-10.73822075 60.37164762 -12.50071278 59.60071237 -14.65234375 58.38671875 C-14.13751456 52.53392375 -13.19877183 47.05695505 -11.65234375 41.38671875 C-13.19921875 41.10828125 -13.19921875 41.10828125 -14.77734375 40.82421875 C-18.83619747 39.66454626 -20.9454792 37.44425631 -23.68359375 34.3359375 C-24.65234375 32.38671875 -24.65234375 32.38671875 -24.578125 29.8984375 C-23.41624313 26.74615885 -21.96359305 25.5815177 -19.33984375 23.51171875 C-15.23112321 20.01242566 -12.63648935 17.4372712 -10.65234375 12.38671875 C-10.78598848 10.33008509 -10.78598848 10.33008509 -11.21484375 8.26171875 C-11.65234375 4.38671875 -11.65234375 4.38671875 -9.77734375 1.32421875 C-5.95081988 -1.04822605 -4.28255022 -0.77929545 0 0 Z " fill="#EEA69E" transform="translate(184.65234375,137.61328125)"/>
<path d="M0 0 C0.639375 0.495 1.27875 0.99 1.9375 1.5 C4.60511764 1.75124826 4.60511764 1.75124826 6.9375 1.5 C6.9375 2.82 6.9375 4.14 6.9375 5.5 C6.2775 6.16 5.6175 6.82 4.9375 7.5 C5.2560177 9.60820797 5.2560177 9.60820797 5.9375 11.5 C7.5875 11.5 9.2375 11.5 10.9375 11.5 C10.9375 12.82 10.9375 14.14 10.9375 15.5 C9.9475 15.995 9.9475 15.995 8.9375 16.5 C8.6590625 18.3871875 8.6590625 18.3871875 8.375 20.3125 C7.74667099 23.16296818 7.37863534 24.1931986 4.94921875 25.8828125 C-1.93841217 28.92644646 -8.52364555 30.37687582 -16.0625 29.5 C-18.19531366 28.61197395 -20.10999831 27.5443316 -22.11328125 26.3984375 C-25.53625409 24.82071455 -28.34495751 25.12194483 -32.0625 25.5 C-33.0525 26.16 -34.0425 26.82 -35.0625 27.5 C-34.7325 25.85 -34.4025 24.2 -34.0625 22.5 C-31.7525 21.84 -29.4425 21.18 -27.0625 20.5 C-27.07603516 19.6646875 -27.07603516 19.6646875 -27.08984375 18.8125 C-26.8553978 12.77806519 -25.22516092 9.54562276 -21.03515625 5.2265625 C-15.75779191 0.60756243 -6.63764837 -4.82738063 0 0 Z " fill="#21A0AA" transform="translate(145.0625,128.5)"/>
<path d="M0 0 C6.90700696 2.22010938 12.34790834 6.87039509 16.40625 12.7734375 C17.96292291 16.47980156 18.40625 18.7165321 18.40625 22.7734375 C19.14875 22.8971875 19.89125 23.0209375 20.65625 23.1484375 C23.20766485 23.72830451 25.1330073 24.51052489 27.40625 25.7734375 C26.91125 27.2584375 26.91125 27.2584375 26.40625 28.7734375 C25.08625 28.1134375 23.76625 27.4534375 22.40625 26.7734375 C22.40625 27.4334375 22.40625 28.0934375 22.40625 28.7734375 C21.354375 28.5465625 20.3025 28.3196875 19.21875 28.0859375 C15.51224714 27.40508575 15.51224714 27.40508575 13.15625 29.1484375 C8.14597572 32.10905412 2.35103521 32.28392319 -3.3203125 31.30078125 C-8.2117424 29.9486186 -13.01245383 28.44897831 -16.59375 24.7734375 C-18.23702925 18.2363047 -16.22500647 12.67289182 -13.00390625 6.984375 C-9.30236288 1.18084717 -6.90721168 -1.22027406 0 0 Z " fill="#21A0AA" transform="translate(233.59375,129.2265625)"/>
<path d="M0 0 C-1.31293711 3.44311058 -2.8143342 6.64211396 -4.6015625 9.86328125 C-5.09140625 10.74951172 -5.58125 11.63574219 -6.0859375 12.54882812 C-6.59382813 13.46083984 -7.10171875 14.37285156 -7.625 15.3125 C-8.140625 16.24384766 -8.65625 17.17519531 -9.1875 18.13476562 C-10.45573517 20.42463469 -11.72664162 22.71297715 -13 25 C-12.09636719 24.7834375 -11.19273437 24.566875 -10.26171875 24.34375 C-8.49248047 23.92609375 -8.49248047 23.92609375 -6.6875 23.5 C-5.51574219 23.2215625 -4.34398437 22.943125 -3.13671875 22.65625 C0 22 0 22 3 22 C1.55979869 26.22818461 -0.53321658 29.20770979 -3.3125 32.6875 C-9.3272506 40.316267 -14.97358386 48.19995541 -20.62475586 56.09985352 C-22.06075378 58.08394224 -23.52523745 60.04460226 -25 62 C-25.66 61.67 -26.32 61.34 -27 61 C-23.04 52.09 -19.08 43.18 -15 34 C-18.3 34.99 -21.6 35.98 -25 37 C-26.32 37 -27.64 37 -29 37 C-28.35333208 32.78163693 -26.92259444 29.31962091 -25.12890625 25.45703125 C-24.84651596 24.84736008 -24.56412567 24.2376889 -24.2731781 23.60954285 C-23.67816302 22.32839276 -23.08046245 21.04848686 -22.48022461 19.76977539 C-21.56202644 17.81149002 -20.65448769 15.84851629 -19.74804688 13.88476562 C-19.16729434 12.63772833 -18.58593506 11.39097338 -18.00390625 10.14453125 C-17.47611572 9.01378174 -16.9483252 7.88303223 -16.40454102 6.71801758 C-15 4 -15 4 -13 2 C-10.9765625 1.3671875 -10.9765625 1.3671875 -8.625 0.875 C-7.85414063 0.70742188 -7.08328125 0.53984375 -6.2890625 0.3671875 C-4 0 -4 0 0 0 Z " fill="#FFCF2C" transform="translate(208,63)"/>
<path d="M0 0 C2.32718081 0.38334592 4.37371222 0.37851707 6.72265625 0.26171875 C10.34765625 0.38671875 10.34765625 0.38671875 12.34765625 1.63671875 C13.34765625 3.38671875 13.34765625 3.38671875 13.34765625 7.38671875 C14.09015625 7.30421875 14.83265625 7.22171875 15.59765625 7.13671875 C18.34765625 7.38671875 18.34765625 7.38671875 20.66015625 8.88671875 C22.57326116 11.72094825 23.03201596 13.8735185 22.87890625 17.29296875 C22.05452353 20.54200654 20.16808532 22.49203122 17.85546875 24.84375 C16.12711152 26.51733156 16.12711152 26.51733156 14.34765625 29.38671875 C12 30.15234375 12 30.15234375 9.28515625 30.63671875 C8.38667969 30.806875 7.48820312 30.97703125 6.5625 31.15234375 C5.83160156 31.2296875 5.10070312 31.30703125 4.34765625 31.38671875 C3.34765625 30.38671875 3.34765625 30.38671875 3.25 28.5390625 C3.29882812 25.46289062 3.29882812 25.46289062 3.34765625 22.38671875 C2.02765625 22.38671875 0.70765625 22.38671875 -0.65234375 22.38671875 C-1.64234375 20.40671875 -2.63234375 18.42671875 -3.65234375 16.38671875 C-2.99234375 16.05671875 -2.33234375 15.72671875 -1.65234375 15.38671875 C-4.73424031 14.47356421 -7.44889794 14.34421864 -10.65234375 14.38671875 C-12.37318254 5.6121447 -12.37318254 5.6121447 -9.77734375 1.19921875 C-5.96732482 -1.01059223 -4.20492494 -0.76516998 0 0 Z " fill="#5D2549" transform="translate(184.65234375,137.61328125)"/>
<path d="M0 0 C9.87656025 9.1563944 20.12931714 27.6811228 21.1796875 41.3359375 C21.18631543 43.22489654 21.10288183 45.11383312 21 47 C15.39204896 46.77110404 12.65520215 45.3841502 8.48046875 41.66796875 C6.90102635 39.88849143 5.96333553 38.16633013 5 36 C7.475 35.505 7.475 35.505 10 35 C8.55784388 25.8663446 6.76350466 17.45451274 3.18359375 8.8671875 C1.97871827 5.94844623 0.96742494 3.00481296 0 0 Z " fill="#A04080" transform="translate(111,214)"/>
<path d="M0 0 C5.5952381 0.5952381 5.5952381 0.5952381 8 3 C10.58354218 3.16687448 10.58354218 3.16687448 13 3 C13 4.32 13 5.64 13 7 C12.34 7.66 11.68 8.32 11 9 C11.3185177 11.10820797 11.3185177 11.10820797 12 13 C13.65 13 15.3 13 17 13 C17 14.32 17 15.64 17 17 C16.34 17.33 15.68 17.66 15 18 C14.31527335 19.88764903 14.31527335 19.88764903 13.875 22.0625 C13.70742187 22.79597656 13.53984375 23.52945313 13.3671875 24.28515625 C13.24601563 24.85105469 13.12484375 25.41695312 13 26 C10.375 26.0625 10.375 26.0625 7 25 C1.1053058 18.41344028 -1.24090001 11.56346152 -1.16796875 2.85546875 C-1 1 -1 1 0 0 Z " fill="#F8CA31" transform="translate(139,127)"/>
<path d="M0 0 C1.95047334 3.90094668 1.53712178 8.20754789 0.31640625 12.28125 C-1.90900181 17.67394007 -4.96505376 21.81710573 -9 26 C-10.65 25.67 -12.3 25.34 -14 25 C-14.82489624 16.38441702 -12.8966051 10.19158465 -7.6953125 3.26171875 C-4.98832465 0.27730668 -4.19254772 0 0 0 Z " fill="#F6C533" transform="translate(231,129)"/>
<path d="M0 0 C4.68738665 0.90723613 9.34193744 1.9547267 14 3 C13.814375 3.7425 13.62875 4.485 13.4375 5.25 C12.81584136 7.85270639 12.81584136 7.85270639 13.53125 9.71875 C14.21308973 13.03703667 13.5869208 15.91838548 13.0625 19.25 C12.86785156 20.51328125 12.67320312 21.7765625 12.47265625 23.078125 C12.31667969 24.04234375 12.16070312 25.0065625 12 26 C12.99 26 13.98 26 15 26 C15 26.66 15 27.32 15 28 C14.01 28 13.02 28 12 28 C11.67 29.32 11.34 30.64 11 32 C10 31 10 31 9.875 27.5625 C9.92819688 22.67725283 10.44344821 17.84995131 11 13 C10.608125 13.804375 10.21625 14.60875 9.8125 15.4375 C8 18 8 18 5.5 19 C3 19 3 19 1.25 17.6875 C-1.08317873 14.53770871 -1.13530055 12.44065822 -1.125 8.5625 C-1.12757813 7.59441406 -1.13015625 6.62632812 -1.1328125 5.62890625 C-1 3 -1 3 0 0 Z " fill="#F95B52" transform="translate(169,196)"/>
<path d="M0 0 C4.36399272 1.35410064 8.49486432 3.04195571 12.67407227 4.86865234 C20.66966315 8.35552323 28.40492468 11.32628841 37 13 C38.45986328 13.30357422 38.45986328 13.30357422 39.94921875 13.61328125 C42.29640626 14.09450379 44.64532072 14.55719527 47 15 C46.67 16.32 46.34 17.64 46 19 C32.75970955 18.50687931 10.04983773 15.04983773 0 5 C-0.04063832 3.33382885 -0.042721 1.66611905 0 0 Z " fill="#65AFF0" transform="translate(278,164)"/>
<path d="M0 0 C-0.2421875 2.34375 -0.2421875 2.34375 -1 5 C-9.88651517 12.10921214 -24.13541504 14.86596229 -35.1875 16.875 C-35.90623291 17.00729004 -36.62496582 17.13958008 -37.36547852 17.27587891 C-40.82227636 17.85070981 -43.67121929 18.25581908 -47 17 C-46.67 15.68 -46.34 14.36 -46 13 C-44.94683594 12.84144531 -43.89367188 12.68289062 -42.80859375 12.51953125 C-29.51522348 10.41208357 -17.3144702 6.89727699 -5.171875 0.91796875 C-3 0 -3 0 0 0 Z " fill="#65B0EF" transform="translate(94,160)"/>
<path d="M0 0 C0.33 0.66 0.66 1.32 1 2 C0.5875 2.78375 0.175 3.5675 -0.25 4.375 C-5.35850636 14.12334241 -5.60428271 25.24740608 -6 36 C-4.68 36.33 -3.36 36.66 -2 37 C-2.32104541 40.53149946 -2.65085217 42.55774608 -4.875 45.375 C-7 47 -7 47 -10 47 C-13.67806999 41.03236837 -12.89127584 32.61518836 -11.59716797 25.9140625 C-9.50310069 17.36849438 -6.3280492 6.3280492 0 0 Z " fill="#A2407E" transform="translate(253,214)"/>
<path d="M0 0 C6.875 1.875 6.875 1.875 8 3 C9.18101163 11.70996077 5.82142329 18.85682122 1 26 C-2 28.49609375 -2 28.49609375 -5 30 C-7.84556124 29.64299232 -9.4451646 28.43070782 -12 27 C-11.278125 26.484375 -10.55625 25.96875 -9.8125 25.4375 C-4.93892857 21.21373809 -1.3776176 16.38713614 0 10 C0.14570518 6.65882944 0.11886957 3.34155566 0 0 Z " fill="#3CABB0" transform="translate(231,129)"/>
<path d="M0 0 C-0.0825 1.27875 -0.165 2.5575 -0.25 3.875 C-0.2389651 10.87112541 2.03099895 16.74971309 6.625 22 C7.800625 22.99 7.800625 22.99 9 24 C9.66 24.66 10.32 25.32 11 26 C7.8590886 27.86128083 5.62553123 28.77689955 2 28 C-3.80079864 23.33837629 -7.32664747 15.98280874 -8.3125 8.6875 C-8.42278334 4.93786636 -8.11072417 3.16608625 -6 0 C-3.39677846 -0.97620808 -2.52782417 -1.26391209 0 0 Z " fill="#3CAAB0" transform="translate(139,128)"/>
<path d="M0 0 C-0.33 4.95 -0.66 9.9 -1 15 C-7.49260386 13.95797716 -13.09356588 12.88759001 -19 10 C-19 8.35 -19 6.7 -19 5 C-17.43979133 4.34865075 -15.87671421 3.70417036 -14.3125 3.0625 C-13.44238281 2.70285156 -12.57226562 2.34320313 -11.67578125 1.97265625 C-7.63404123 0.503469 -4.31180322 0 0 0 Z " fill="#592D4F" transform="translate(139,265)"/>
<path d="M0 0 C5.35480848 0.10709617 8.86131333 1.47584109 12.74609375 5.0390625 C14.83503152 8.30587484 14.23031982 11.22248583 13.66015625 14.92578125 C13.44230469 15.61027344 13.22445313 16.29476562 13 17 C12.34 17.33 11.68 17.66 11 18 C10.59270772 20.32156597 10.25561323 22.6568787 10 25 C9.67 25 9.34 25 9 25 C9 22.03 9 19.06 9 16 C7.68 15.67 6.36 15.34 5 15 C4.67 15.99 4.34 16.98 4 18 C0.19326015 12.12674423 -1.75551963 8.05151652 -1 1 C-0.67 0.67 -0.34 0.34 0 0 Z " fill="#E59B9D" transform="translate(262,151)"/>
<path d="M0 0 C0.33 2.97 0.66 5.94 1 9 C1.66 8.67 2.32 8.34 3 8 C2.34 9.65 1.68 11.3 1 13 C0.01 13 -0.98 13 -2 13 C-2.99 13.495 -2.99 13.495 -4 14 C-4.66 13.67 -5.32 13.34 -6 13 C-5.67 15.97 -5.34 18.94 -5 22 C-5.66 22.33 -6.32 22.66 -7 23 C-7.33 20.36 -7.66 17.72 -8 15 C-8.99 15.33 -9.98 15.66 -11 16 C-12.60355101 12.49223216 -13.22036864 9.85645121 -13 6 C-12.360625 5.896875 -11.72125 5.79375 -11.0625 5.6875 C-10.381875 5.460625 -9.70125 5.23375 -9 5 C-8.67 4.01 -8.34 3.02 -8 2 C-3.63934426 -1.21311475 -3.63934426 -1.21311475 0 0 Z " fill="#DF939B" transform="translate(106,149)"/>
<path d="M0 0 C2.2012966 4.75016635 2.1765235 8.88081854 2 14 C-3.60795104 13.77110404 -6.34479785 12.3841502 -10.51953125 8.66796875 C-12.09897365 6.88849143 -13.03666447 5.16633013 -14 3 C-12.23358317 2.3012307 -10.46167336 1.61633417 -8.6875 0.9375 C-7.20830078 0.36322266 -7.20830078 0.36322266 -5.69921875 -0.22265625 C-3 -1 -3 -1 0 0 Z " fill="#5D2447" transform="translate(130,247)"/>
<path d="M0 0 C0 1.65 0 3.3 0 5 C-2.22844214 5.6483289 -4.4577846 6.29356369 -6.6875 6.9375 C-8.54955078 7.47697266 -8.54955078 7.47697266 -10.44921875 8.02734375 C-13.29639862 8.80726431 -16.09802254 9.47287216 -19 10 C-19 8.35 -19 6.7 -19 5 C-17.43979133 4.34865075 -15.87671421 3.70417036 -14.3125 3.0625 C-13.44238281 2.70285156 -12.57226562 2.34320313 -11.67578125 1.97265625 C-7.63404123 0.503469 -4.31180322 0 0 0 Z " fill="#3FACB1" transform="translate(139,265)"/>
<path d="M0 0 C4.95 1.98 4.95 1.98 10 4 C9.67895459 7.53149946 9.34914783 9.55774608 7.125 12.375 C5 14 5 14 2 14 C-0.74809946 9.36934423 -0.13884536 5.27612362 0 0 Z " fill="#5B2348" transform="translate(241,247)"/>
<path d="M0 0 C2.10583487 0.45060661 4.20962872 0.91075956 6.3125 1.375 C7.48425781 1.63023437 8.65601563 1.88546875 9.86328125 2.1484375 C13 3 13 3 16 5 C16.1875 7.625 16.1875 7.625 16 10 C12.45165481 9.36180842 9.13724493 8.48725713 5.75 7.25 C4.87859375 6.94578125 4.0071875 6.6415625 3.109375 6.328125 C1 5 1 5 0.203125 2.359375 C0.13609375 1.58078125 0.0690625 0.8021875 0 0 Z " fill="#3EAEB3" transform="translate(232,265)"/>
<path d="M0 0 C0.33 0 0.66 0 1 0 C1.1953125 2.05078125 1.390625 4.1015625 1.5859375 6.15234375 C1.72257812 6.76207031 1.85921875 7.37179688 2 8 C2.66 8.33 3.32 8.66 4 9 C3.01 9.495 3.01 9.495 2 10 C1.34 9.67 0.68 9.34 0 9 C0.33 11.97 0.66 14.94 1 18 C0.34 18.33 -0.32 18.66 -1 19 C-1.33 16.36 -1.66 13.72 -2 11 C-2.99 11.33 -3.98 11.66 -5 12 C-6.60355101 8.49223216 -7.22036864 5.85645121 -7 2 C-5.68 1.67 -4.36 1.34 -3 1 C-2.34 3.31 -1.68 5.62 -1 8 C-0.67 5.36 -0.34 2.72 0 0 Z " fill="#C36F90" transform="translate(100,153)"/>
<path d="M0 0 C1.60746056 0.42523816 3.21089836 0.86570126 4.8125 1.3125 C6.15248047 1.67794922 6.15248047 1.67794922 7.51953125 2.05078125 C10.05247738 3.0200819 11.2716496 3.95009604 13 6 C11.73160474 6.50615298 10.46016898 7.00469099 9.1875 7.5 C8.12595703 7.91765625 8.12595703 7.91765625 7.04296875 8.34375 C5 9 5 9 2 9 C1.34 6.03 0.68 3.06 0 0 Z " fill="#5C3151" transform="translate(233,270)"/>
<path d="M0 0 C0.66 0 1.32 0 2 0 C3.4049404 3.89060419 2.69513239 7.23092362 2.0625 11.25 C1.86785156 12.51328125 1.67320312 13.7765625 1.47265625 15.078125 C1.31667969 16.04234375 1.16070312 17.0065625 1 18 C1.99 18 2.98 18 4 18 C4 18.66 4 19.32 4 20 C3.01 20 2.02 20 1 20 C0.67 21.32 0.34 22.64 0 24 C-1 23 -1 23 -1.125 19.6875 C-1.07387003 14.98354249 -0.65039266 10.3188426 -0.21875 5.63671875 C0.04133946 2.94267476 0.04133946 2.94267476 0 0 Z " fill="#FA7C75" transform="translate(180,204)"/>
<path d="M0 0 C2.625 0.375 2.625 0.375 5 1 C5.625 2.875 5.625 2.875 6 5 C5.34 5.66 4.68 6.32 4 7 C1.375 6.625 1.375 6.625 -1 6 C-1.625 4.125 -1.625 4.125 -2 2 C-1.34 1.34 -0.68 0.68 0 0 Z " fill="#EC9092" transform="translate(180,165)"/>
<path d="M0 0 C1.65 0 3.3 0 5 0 C5 1.32 5 2.64 5 4 C1.17679443 5.42258812 -1.91281305 6.24042276 -6 6 C-5.67 5.01 -5.34 4.02 -5 3 C-3.35 2.67 -1.7 2.34 0 2 C0 1.34 0 0.68 0 0 Z " fill="#9E407E" transform="translate(151,140)"/>
<path d="M0 0 C4.95 1.98 4.95 1.98 10 4 C9.67 4.99 9.34 5.98 9 7 C7.68 6.34 6.36 5.68 5 5 C5 5.66 5 6.32 5 7 C2.97954558 6.39816251 0.97888961 5.72693904 -1 5 C-1.33 4.34 -1.66 3.68 -2 3 C-1.34 2.01 -0.68 1.02 0 0 Z " fill="#62B1ED" transform="translate(251,151)"/>
<path d="M0 0 C0 1.32 0 2.64 0 4 C-3.82320557 5.42258812 -6.91281305 6.24042276 -11 6 C-10 3 -10 3 -7.75 1.3125 C-4.8635748 -0.06511203 -3.14826764 -0.26985151 0 0 Z " fill="#A0427D" transform="translate(152,130)"/>
<path d="M0 0 C-0.33 1.32 -0.66 2.64 -1 4 C-1.928125 3.95875 -2.85625 3.9175 -3.8125 3.875 C-7.15809719 3.72863661 -7.15809719 3.72863661 -10 6 C-9.8125 3.625 -9.8125 3.625 -9 1 C-5.71803757 -0.95143712 -3.5838203 -1.32734085 0 0 Z " fill="#6DB1E9" transform="translate(120,150)"/>
<path d="M0 0 C2.64 0 5.28 0 8 0 C7.4375 1.9375 7.4375 1.9375 6 4 C2.375 4.75 2.375 4.75 -1 5 C-0.67 3.35 -0.34 1.7 0 0 Z " fill="#6A3151" transform="translate(173,179)"/>
<path d="M0 0 C0.33 0 0.66 0 1 0 C1.07347656 1.15628906 1.07347656 1.15628906 1.1484375 2.3359375 C1.22320312 3.33882812 1.29796875 4.34171875 1.375 5.375 C1.44460938 6.37273437 1.51421875 7.37046875 1.5859375 8.3984375 C1.76363964 11.15508879 1.76363964 11.15508879 4 13 C3.01 13 2.02 13 1 13 C0.67 13.99 0.34 14.98 0 16 C-1.06775224 14.03533587 -2.06553465 12.03144641 -3 10 C-2.67 9.34 -2.34 8.68 -2 8 C-1.67 8.33 -1.34 8.66 -1 9 C-0.67 6.03 -0.34 3.06 0 0 Z " fill="#C06B8F" transform="translate(266,153)"/>
<path d="M0 0 C0.66 0 1.32 0 2 0 C2 3.3 2 6.6 2 10 C1.01 10.495 1.01 10.495 0 11 C-1.62651522 7.74696956 -1.11453156 4.60774398 -1 1 C-0.67 0.67 -0.34 0.34 0 0 Z " fill="#F3AEA4" transform="translate(98,151)"/>
<path d="M0 0 C2.50037734 2.17424117 3.43628586 3.73045798 4 7 C2.68 7 1.36 7 0 7 C-0.99 5.02 -1.98 3.04 -3 1 C-2.01 0.67 -1.02 0.34 0 0 Z " fill="#733956" transform="translate(184,153)"/>
<path d="M0 0 C0.66 0 1.32 0 2 0 C2 2.97 2 5.94 2 9 C1.34 9 0.68 9 0 9 C-0.87890625 2.84765625 -0.87890625 2.84765625 -1 1 C-0.67 0.67 -0.34 0.34 0 0 Z " fill="#F3AAA0" transform="translate(94,154)"/>
<path d="M0 0 C4.875 4.625 4.875 4.625 6 8 C5.01 8 4.02 8 3 8 C0 2.25 0 2.25 0 0 Z " fill="#AD487E" transform="translate(111,214)"/>
</svg>
